<svg width="220" height="52" viewBox="0 0 220 52" fill="none" xmlns="http://www.w3.org/2000/svg">
<path d="M13.375 30.1875H0.46875V31.625H13.375V30.1875ZM1.89062 27.6719H11.9062V20.2188H10.1719V22.6406H3.625V20.2188H1.89062V27.6719ZM3.625 26.3125V24H10.1719V26.3125H3.625ZM26.375 19.2812H24.7188V23.3594H23.25V19.5469H21.625V29.4375H23.25V24.7812H24.7188V29.7656H26.375V19.2812ZM14.875 21.8125H18.5781V23.4062H14.8906V27.7656H15.8594C17.9297 27.7656 19.3594 27.7109 21.0625 27.4062L20.9062 26.0156C19.4688 26.2969 18.2266 26.3828 16.5781 26.3906V24.7188H20.25V20.4375H14.875V21.8125ZM16.9219 33.1094H26.7656V31.7031H18.6562V28.7812H16.9219V33.1094ZM39.5938 25.8906H31.4062V21.9062H39.4844V20.5H29.6875V27.2812H39.5938V25.8906ZM28.125 31.5938H41.0312V30.1562H28.125V31.5938Z" fill="#333333"/>
<path d="M215 28L211 24L207 28" stroke="#999999" stroke-width="1.2"/>
</svg>
