<svg width="220" height="52" viewBox="0 0 220 52" fill="none" xmlns="http://www.w3.org/2000/svg">
<path d="M7.8125 20.6562H1.32812V22.0625H6.08594C6.03125 22.8047 5.91406 23.5 5.73438 24.1641L0.59375 24.4844L0.8125 25.9844L5.21094 25.5703C4.39062 27.2422 2.92969 28.6562 0.484375 29.8594L1.4375 31.1719C6.64062 28.5859 7.80469 24.9219 7.8125 20.6562ZM9.79688 33.3594H11.5312V26.2188H13.625V24.7969H11.5312V19.2656H9.79688V33.3594ZM20.0469 20.8906H14.7656V30.1719H15.6875C17.8203 30.1719 19.1719 30.1484 20.7969 29.8281L20.6406 28.4375C19.2578 28.6719 18.1016 28.75 16.4219 28.7734V26.0312H19.4531V24.6875H16.4219V22.2656H20.0469V20.8906ZM20.1406 25.8906H21.8906V32.7031H23.5156V19.5469H21.8906V24.4844H20.1406V25.8906ZM24.7969 33.3906H26.4844V19.2656H24.7969V33.3906ZM39.6562 20.5625H29.4688V21.9531H37.9062C37.8984 23.6484 37.8984 25.6562 37.3438 28.4062L39.0938 28.5938C39.6406 25.6406 39.6406 23.6797 39.6562 21.9219V20.5625ZM28.125 31.5625H41V30.1406H34.5938V25.2344H32.875V30.1406H28.125V31.5625ZM53.7188 19.2656H52V33.4062H53.7188V19.2656ZM42.7188 21.9062H47.6094V24.4219H42.7344V30.0625H43.9688C46.5078 30.0703 48.6172 29.9766 51.0156 29.5625L50.8594 28.1406C48.6562 28.5078 46.7422 28.625 44.5156 28.6406V25.7969H49.375V20.5H42.7188V21.9062Z" fill="#333333"/>
<path d="M67.457 22.9297H66.2363L64.4883 24.0625V25.2246L66.1387 24.1699H66.1777V30H67.457V22.9297Z" fill="#A6A6A6"/>
<path d="M207 24L211 28L215 24" stroke="#999999" stroke-width="1.2"/>
</svg>
